<svg xmlns="http://www.w3.org/2000/svg" viewBox="0 0 804 377"><defs><style>.cls-1{fill:#ebebeb;}.cls-2{fill:#7fc97f;}.cls-3{fill:#beaed4;}.cls-4{fill:#fdc086;}.cls-5{fill:#f28983;}.cls-6{fill:#86dbba;}.cls-7{fill:#75aadb;}.cls-28,.cls-8{fill:#144714;}.cls-30,.cls-9{fill:#413554;}.cls-10,.cls-31{fill:#7a4920;}.cls-11,.cls-32{fill:#70231e;}.cls-12,.cls-33{fill:#14593e;}.cls-13,.cls-34{fill:#103659;}.cls-14{fill:#e5d1ff;}.cls-15{fill:#88c6ff;}.cls-16{fill:#5d945d;}.cls-17{fill:#9084a1;}.cls-18{fill:#c9996b;}.cls-19{fill:#bd6b66;}.cls-20{fill:#65a68d;}.cls-21{fill:#5981a6;}.cls-22{fill:#3d613d;}.cls-23{fill:#625a6e;}.cls-24{fill:#967250;}.cls-25{fill:#8a4e4b;}.cls-26{fill:#467362;}.cls-27{fill:#3d5973;}.cls-28,.cls-30,.cls-31,.cls-32,.cls-33,.cls-34,.cls-35{font-size:18px;font-family:OpenSans, Open Sans;}.cls-29{font-size:14px;font-family:OpenSans-Bold, Open Sans;font-weight:700;}.cls-35{fill:#fff;}.cls-36{fill:#9efa9e;}.cls-37{fill:#9cffd9;}</style></defs><title>color chart</title><g id="Layer_2" data-name="Layer 2"><g id="Layer_2-2" data-name="Layer 2"><rect class="cls-1" width="804" height="377"/></g><g id="Layer_1-2" data-name="Layer 1"><rect class="cls-2" x="34" y="37.23" width="140" height="52"/><rect class="cls-3" x="34.14" y="89.23" width="140" height="52"/><rect class="cls-4" x="34" y="141.23" width="140" height="52"/><rect class="cls-5" x="33.9" y="193.23" width="140" height="52"/><rect class="cls-6" x="34" y="245.23" width="140" height="52"/><rect class="cls-7" x="34" y="297.23" width="140" height="52"/><rect class="cls-8" x="630" y="37.23" width="140" height="52"/><rect class="cls-9" x="630.14" y="89.23" width="140" height="52"/><rect class="cls-10" x="630" y="141.23" width="140" height="52"/><rect class="cls-11" x="629.9" y="193.23" width="140" height="52"/><rect class="cls-12" x="630" y="245.23" width="140" height="52"/><rect class="cls-13" x="630" y="297.23" width="140" height="52"/><rect class="cls-14" x="313.99" y="89.23" width="140" height="52"/><rect class="cls-15" x="313.99" y="297.23" width="140" height="52"/><rect class="cls-16" x="174.28" y="37.23" width="140" height="52"/><rect class="cls-17" x="174.43" y="89.23" width="140" height="52"/><rect class="cls-18" x="174.28" y="141.23" width="140" height="52"/><rect class="cls-19" x="174.18" y="193.23" width="140" height="52"/><rect class="cls-20" x="174.28" y="245.23" width="140" height="52"/><rect class="cls-21" x="174.28" y="297.23" width="140" height="52"/><rect class="cls-22" x="453.57" y="37.23" width="140" height="52"/><rect class="cls-23" x="453.71" y="89.23" width="140" height="52"/><rect class="cls-24" x="453.57" y="141.23" width="140" height="52"/><rect class="cls-25" x="453.47" y="193.23" width="140" height="52"/><rect class="cls-26" x="453.61" y="245.23" width="140" height="52"/><rect class="cls-27" x="453.57" y="297.23" width="140" height="52"/></g><g id="Layer_3" data-name="Layer 3"><text class="cls-28" transform="translate(72.52 69.88)">#7fc97f</text><text class="cls-29" transform="translate(41.51 50.84)">01</text><text class="cls-29" transform="translate(41.51 102.84)">02</text><text class="cls-29" transform="translate(41.51 154.84)">03</text><text class="cls-29" transform="translate(41.51 206.84)">04</text><text class="cls-29" transform="translate(41.51 258.84)">05</text><text class="cls-29" transform="translate(41.51 310.84)">06</text><text class="cls-29" transform="translate(181.51 50.84)">07</text><text class="cls-29" transform="translate(181.51 102.84)">08</text><text class="cls-29" transform="translate(181.51 154.84)">09</text><text class="cls-29" transform="translate(181.51 206.84)">10</text><text class="cls-29" transform="translate(181.51 258.84)">11</text><text class="cls-29" transform="translate(181.51 310.84)">12</text><text class="cls-29" transform="translate(461.51 50.84)">17</text><text class="cls-29" transform="translate(461.51 102.84)">18</text><text class="cls-29" transform="translate(461.51 154.84)">19</text><text class="cls-29" transform="translate(461.51 206.84)">20</text><text class="cls-29" transform="translate(461.51 258.84)">21</text><text class="cls-29" transform="translate(461.51 310.84)">22</text><text class="cls-30" transform="translate(66.61 121.88)">#beaed4</text><text class="cls-31" transform="translate(69.86 173.88)">#fdc086</text><text class="cls-32" transform="translate(69.66 225.88)">#f28983</text><text class="cls-33" transform="translate(66.1 277.88)">#86dbba</text><text class="cls-34" transform="translate(67.01 329.28)">#75aadb</text><text class="cls-35" transform="translate(663.47 69.88)">#144714</text><text class="cls-35" transform="translate(663.01 121.88)">#413554</text><text class="cls-35" transform="translate(663.41 173.88)">#7a4920</text><text class="cls-35" transform="translate(663.66 225.88)">#70231e</text><text class="cls-35" transform="translate(663.16 277.88)">#14593e</text><text class="cls-35" transform="translate(663.47 329.28)">#103659</text><rect class="cls-36" x="314" y="37" width="140" height="52"/><text class="cls-28" transform="translate(349.9 68.89)">#9efa9e</text><text class="cls-30" transform="translate(350.78 121.13)">#e5d1ff</text><rect class="cls-37" x="314" y="245" width="140" height="52"/><text class="cls-33" transform="translate(351.75 276.89)">#9cffd9</text><text class="cls-34" transform="translate(352.51 328.53)">#88c6ff</text><text class="cls-28" transform="translate(207.01 69.63)">#5d945d</text><text class="cls-30" transform="translate(207.43 121.63)">#9084a1</text><text class="cls-31" transform="translate(208.04 173.63)">#c9996b</text><text class="cls-32" transform="translate(206.74 225.63)">#bd6b66</text><text class="cls-33" transform="translate(207.12 277.63)">#65a68d</text><text class="cls-34" transform="translate(207.89 329.03)">#5981a6</text><text class="cls-28" transform="translate(486.3 68.38)">#3d613d</text><text class="cls-30" transform="translate(486.82 120.38)">#625a6e</text><text class="cls-31" transform="translate(486.84 172.38)">#967250</text><text class="cls-32" transform="translate(487 224.38)">#8a4e4b</text><text class="cls-33" transform="translate(486.68 276.38)">#467362</text><text class="cls-34" transform="translate(486.67 327.78)">#3d5973</text><text class="cls-29" transform="translate(321.51 50.84)">13</text><text class="cls-29" transform="translate(321.51 102.84)">14</text><text class="cls-29" transform="translate(321.51 258.84)">15</text><text class="cls-29" transform="translate(321.51 310.84)">16</text><text class="cls-29" transform="translate(273.94 29)">Data colors</text><text class="cls-29" transform="translate(652.32 29)">Accent colors</text></g></g></svg>